<?xml version="1.0" standalone="no"?>
<!DOCTYPE svg PUBLIC "-//W3C//DTD SVG 20010904//EN"
 "http://www.w3.org/TR/2001/REC-SVG-20010904/DTD/svg10.dtd">
<svg version="1.0" xmlns="http://www.w3.org/2000/svg"
 width="700.000000pt" height="700.000000pt" viewBox="0 0 700.000000 700.000000"
 preserveAspectRatio="xMidYMid meet">
<metadata>
Created by potrace 1.14, written by Peter Selinger 2001-2017
</metadata>
<g transform="translate(0.000000,700.000000) scale(0.100000,-0.100000)"
fill="#000000" stroke="none">
<path d="M2135 6993 c-266 -31 -479 -83 -685 -167 -62 -25 -243 -113 -285
-139 -37 -22 -224 -146 -242 -161 -320 -255 -535 -520 -698 -861 -77 -161
-161 -422 -190 -590 -5 -33 -11 -72 -24 -180 -6 -39 -9 -981 -8 -2160 l2
-2090 21 -72 c82 -277 294 -482 574 -554 61 -15 244 -20 305 -8 28 6 61 12 75
15 14 3 59 20 100 37 229 99 389 287 453 531 20 79 21 100 21 974 1 681 4 892
13 892 6 0 24 -5 40 -11 79 -30 295 -78 428 -96 22 -2 51 -7 65 -10 14 -3 963
-6 2110 -7 2034 -3 2087 -2 2175 17 283 61 498 261 586 547 20 63 23 96 23
210 -1 198 -38 311 -150 465 -111 153 -308 274 -489 302 -27 4 -53 8 -57 9 -5
1 -404 2 -887 3 l-880 1 14 33 c13 30 59 202 70 258 5 24 22 121 30 169 24
137 24 506 1 625 -2 11 -7 43 -10 70 -20 139 -102 419 -166 560 -128 285 -300
530 -515 736 -121 116 -273 238 -367 294 -137 82 -316 174 -368 190 -14 4 -43
16 -65 25 -94 42 -360 110 -484 125 -30 4 -63 9 -75 12 -25 5 -418 11 -461 6z
m310 -1557 c239 -32 470 -197 579 -415 60 -119 80 -201 80 -336 1 -152 -9
-211 -53 -317 -122 -289 -402 -476 -714 -476 -238 -1 -450 99 -607 284 -66 79
-142 237 -155 324 -4 24 -9 48 -11 52 -3 4 -5 56 -5 115 -1 288 157 551 411
686 146 77 307 105 475 83z"/>
</g>
</svg>
